<svg width="103" height="30" viewBox="0 0 103 30" fill="none" xmlns="http://www.w3.org/2000/svg">
<path d="M5.09375 7.15039V23H0.860352V7.15039H5.09375ZM0.59668 3.01953C0.59668 2.4043 0.811523 1.89648 1.24121 1.49609C1.6709 1.0957 2.24707 0.895508 2.96973 0.895508C3.68262 0.895508 4.25391 1.0957 4.68359 1.49609C5.12305 1.89648 5.34277 2.4043 5.34277 3.01953C5.34277 3.63477 5.12305 4.14258 4.68359 4.54297C4.25391 4.94336 3.68262 5.14355 2.96973 5.14355C2.24707 5.14355 1.6709 4.94336 1.24121 4.54297C0.811523 4.14258 0.59668 3.63477 0.59668 3.01953ZM18.6143 7.15039H22.4375V22.4727C22.4375 23.918 22.1152 25.1436 21.4707 26.1494C20.8359 27.165 19.9473 27.9316 18.8047 28.4492C17.6621 28.9766 16.334 29.2402 14.8203 29.2402C14.1562 29.2402 13.4531 29.1523 12.7109 28.9766C11.9785 28.8008 11.2754 28.5273 10.6016 28.1562C9.9375 27.7852 9.38086 27.3164 8.93164 26.75L10.792 24.2598C11.2803 24.8262 11.8467 25.2656 12.4912 25.5781C13.1357 25.9004 13.8486 26.0615 14.6299 26.0615C15.3916 26.0615 16.0361 25.9199 16.5635 25.6367C17.0908 25.3633 17.4961 24.958 17.7793 24.4209C18.0625 23.8936 18.2041 23.2539 18.2041 22.502V10.8125L18.6143 7.15039ZM7.9502 15.2656V14.958C7.9502 13.7471 8.09668 12.6484 8.38965 11.6621C8.69238 10.666 9.11719 9.81152 9.66406 9.09863C10.2207 8.38574 10.8945 7.83398 11.6855 7.44336C12.4766 7.05273 13.3701 6.85742 14.3662 6.85742C15.4209 6.85742 16.3047 7.05273 17.0176 7.44336C17.7305 7.83398 18.3164 8.39062 18.7754 9.11328C19.2344 9.82617 19.5908 10.6709 19.8447 11.6475C20.1084 12.6143 20.3135 13.6738 20.46 14.8262V15.5C20.3135 16.6035 20.0938 17.6289 19.8008 18.5762C19.5078 19.5234 19.1221 20.3535 18.6436 21.0664C18.165 21.7695 17.5693 22.3164 16.8564 22.707C16.1533 23.0977 15.3135 23.293 14.3369 23.293C13.3604 23.293 12.4766 23.0928 11.6855 22.6924C10.9043 22.292 10.2354 21.7305 9.67871 21.0078C9.12207 20.2852 8.69238 19.4355 8.38965 18.459C8.09668 17.4824 7.9502 16.418 7.9502 15.2656ZM12.1689 14.958V15.2656C12.1689 15.9199 12.2324 16.5303 12.3594 17.0967C12.4863 17.6631 12.6816 18.166 12.9453 18.6055C13.2188 19.0352 13.5557 19.3721 13.9561 19.6162C14.3662 19.8506 14.8496 19.9678 15.4062 19.9678C16.1777 19.9678 16.8076 19.8066 17.2959 19.4844C17.7842 19.1523 18.1504 18.6982 18.3945 18.1221C18.6387 17.5459 18.7803 16.8818 18.8193 16.1299V14.2109C18.7998 13.5957 18.7168 13.0439 18.5703 12.5557C18.4238 12.0576 18.2188 11.6328 17.9551 11.2812C17.6914 10.9297 17.3496 10.6562 16.9297 10.4609C16.5098 10.2656 16.0117 10.168 15.4355 10.168C14.8789 10.168 14.3955 10.2949 13.9854 10.5488C13.585 10.793 13.248 11.1299 12.9746 11.5596C12.7109 11.9893 12.5107 12.4971 12.374 13.083C12.2373 13.6592 12.1689 14.2842 12.1689 14.958ZM25.9238 20.9639C25.9238 20.3389 26.1387 19.8164 26.5684 19.3965C27.0078 18.9766 27.5889 18.7666 28.3115 18.7666C29.0342 18.7666 29.6104 18.9766 30.04 19.3965C30.4795 19.8164 30.6992 20.3389 30.6992 20.9639C30.6992 21.5889 30.4795 22.1113 30.04 22.5312C29.6104 22.9512 29.0342 23.1611 28.3115 23.1611C27.5889 23.1611 27.0078 22.9512 26.5684 22.5312C26.1387 22.1113 25.9238 21.5889 25.9238 20.9639ZM38.5508 10.5342V23H34.332V7.15039H38.2871L38.5508 10.5342ZM37.9355 14.5186H36.793C36.793 13.3467 36.9443 12.292 37.2471 11.3545C37.5498 10.4072 37.9746 9.60156 38.5215 8.9375C39.0684 8.26367 39.7178 7.75098 40.4697 7.39941C41.2314 7.03809 42.0811 6.85742 43.0186 6.85742C43.7607 6.85742 44.4395 6.96484 45.0547 7.17969C45.6699 7.39453 46.1973 7.73633 46.6367 8.20508C47.0859 8.67383 47.4277 9.29395 47.6621 10.0654C47.9062 10.8369 48.0283 11.7793 48.0283 12.8926V23H43.7803V12.8779C43.7803 12.1748 43.6826 11.6279 43.4873 11.2373C43.292 10.8467 43.0039 10.5732 42.623 10.417C42.252 10.251 41.793 10.168 41.2461 10.168C40.6797 10.168 40.1865 10.2803 39.7666 10.5049C39.3564 10.7295 39.0146 11.042 38.7412 11.4424C38.4775 11.833 38.2773 12.292 38.1406 12.8193C38.0039 13.3467 37.9355 13.9131 37.9355 14.5186ZM58.5312 23.293C57.3008 23.293 56.1973 23.0977 55.2207 22.707C54.2441 22.3066 53.4141 21.7549 52.7305 21.0518C52.0566 20.3486 51.5391 19.5332 51.1777 18.6055C50.8164 17.668 50.6357 16.6719 50.6357 15.6172V15.0312C50.6357 13.8301 50.8066 12.7314 51.1484 11.7354C51.4902 10.7393 51.9785 9.875 52.6133 9.14258C53.2578 8.41016 54.0391 7.84863 54.957 7.45801C55.875 7.05762 56.9102 6.85742 58.0625 6.85742C59.1855 6.85742 60.1816 7.04297 61.0508 7.41406C61.9199 7.78516 62.6475 8.3125 63.2334 8.99609C63.8291 9.67969 64.2783 10.5 64.5811 11.457C64.8838 12.4043 65.0352 13.459 65.0352 14.6211V16.3789H52.4375V13.5664H60.8896V13.2441C60.8896 12.6582 60.7822 12.1357 60.5674 11.6768C60.3623 11.208 60.0498 10.8369 59.6299 10.5635C59.21 10.29 58.6729 10.1533 58.0186 10.1533C57.4619 10.1533 56.9834 10.2754 56.583 10.5195C56.1826 10.7637 55.8555 11.1055 55.6016 11.5449C55.3574 11.9844 55.1719 12.502 55.0449 13.0977C54.9277 13.6836 54.8691 14.3281 54.8691 15.0312V15.6172C54.8691 16.252 54.957 16.8379 55.1328 17.375C55.3184 17.9121 55.5771 18.376 55.9092 18.7666C56.251 19.1572 56.6611 19.46 57.1396 19.6748C57.6279 19.8896 58.1797 19.9971 58.7949 19.9971C59.5566 19.9971 60.2646 19.8506 60.9189 19.5576C61.583 19.2549 62.1543 18.8008 62.6328 18.1953L64.6836 20.4219C64.3516 20.9004 63.8975 21.3594 63.3213 21.7988C62.7549 22.2383 62.0713 22.5996 61.2705 22.8828C60.4697 23.1562 59.5566 23.293 58.5312 23.293ZM71.9639 18.8984L75.2598 7.15039H77.9404L77.0762 11.7646L73.7803 23H71.5391L71.9639 18.8984ZM70.2939 7.15039L72.6523 18.8838L72.8721 23H70.2354L66.2217 7.15039H70.2939ZM80.958 18.6934L83.2578 7.15039H87.3447L83.3311 23H80.709L80.958 18.6934ZM78.3066 7.15039L81.5879 18.8105L82.042 23H79.7861L76.4902 11.7793L75.6553 7.15039H78.3066ZM98.0381 18.6201C98.0381 18.3174 97.9502 18.0439 97.7744 17.7998C97.5986 17.5557 97.2715 17.3311 96.793 17.126C96.3242 16.9111 95.6455 16.7158 94.7568 16.54C93.9561 16.3643 93.209 16.1445 92.5156 15.8809C91.832 15.6074 91.2363 15.2803 90.7285 14.8994C90.2305 14.5186 89.8398 14.0693 89.5566 13.5518C89.2734 13.0244 89.1318 12.4238 89.1318 11.75C89.1318 11.0859 89.2734 10.4609 89.5566 9.875C89.8496 9.28906 90.2646 8.77148 90.8018 8.32227C91.3486 7.86328 92.0127 7.50684 92.7939 7.25293C93.585 6.98926 94.4736 6.85742 95.46 6.85742C96.8369 6.85742 98.0186 7.07715 99.0049 7.5166C100.001 7.95605 100.763 8.56152 101.29 9.33301C101.827 10.0947 102.096 10.9639 102.096 11.9404H97.877C97.877 11.5303 97.7891 11.1641 97.6133 10.8418C97.4473 10.5098 97.1836 10.251 96.8223 10.0654C96.4707 9.87012 96.0117 9.77246 95.4453 9.77246C94.9766 9.77246 94.5713 9.85547 94.2295 10.0215C93.8877 10.1777 93.624 10.3926 93.4385 10.666C93.2627 10.9297 93.1748 11.2227 93.1748 11.5449C93.1748 11.7891 93.2236 12.0088 93.3213 12.2041C93.4287 12.3896 93.5996 12.5605 93.834 12.7168C94.0684 12.873 94.3711 13.0195 94.7422 13.1562C95.123 13.2832 95.5918 13.4004 96.1484 13.5078C97.291 13.7422 98.3115 14.0498 99.21 14.4307C100.108 14.8018 100.821 15.3096 101.349 15.9541C101.876 16.5889 102.14 17.4238 102.14 18.459C102.14 19.1621 101.983 19.8066 101.671 20.3926C101.358 20.9785 100.909 21.4912 100.323 21.9307C99.7373 22.3604 99.0342 22.6973 98.2139 22.9414C97.4033 23.1758 96.4902 23.293 95.4746 23.293C94 23.293 92.75 23.0293 91.7246 22.502C90.709 21.9746 89.9375 21.3057 89.4102 20.4951C88.8926 19.6748 88.6338 18.835 88.6338 17.9756H92.6328C92.6523 18.5518 92.7988 19.0156 93.0723 19.3672C93.3555 19.7188 93.7119 19.9727 94.1416 20.1289C94.5811 20.2852 95.0547 20.3633 95.5625 20.3633C96.1094 20.3633 96.5635 20.29 96.9248 20.1436C97.2861 19.9873 97.5596 19.7822 97.7451 19.5283C97.9404 19.2646 98.0381 18.9619 98.0381 18.6201Z" fill="white"/>
</svg>
